<?xml version="1.0" encoding="UTF-8" standalone="no"?>
<svg
   width="100"
   height="100"
   viewBox="0 0 26.45833 26.45833"
   version="1.1"
   id="svg1323"
   inkscape:version="1.3.2 (091e20e, 2023-11-25)"
   sodipodi:docname="icon.svg"
   xmlns:inkscape="http://www.inkscape.org/namespaces/inkscape"
   xmlns:sodipodi="http://sodipodi.sourceforge.net/DTD/sodipodi-0.dtd"
   xmlns="http://www.w3.org/2000/svg"
   xmlns:svg="http://www.w3.org/2000/svg"
   xmlns:rdf="http://www.w3.org/1999/02/22-rdf-syntax-ns#"
   xmlns:cc="http://creativecommons.org/ns#"
   xmlns:dc="http://purl.org/dc/elements/1.1/">
  <defs
     id="defs1317" />
  <sodipodi:namedview
     id="base"
     pagecolor="#ffffff"
     bordercolor="#666666"
     borderopacity="1.0"
     inkscape:pageopacity="0.0"
     inkscape:pageshadow="2"
     inkscape:zoom="2.9539789"
     inkscape:cx="49.932652"
     inkscape:cy="56.364655"
     inkscape:document-units="px"
     inkscape:current-layer="layer1"
     showgrid="false"
     units="px"
     inkscape:window-width="1424"
     inkscape:window-height="926"
     inkscape:window-x="0"
     inkscape:window-y="25"
     inkscape:window-maximized="0"
     inkscape:document-rotation="0"
     inkscape:pagecheckerboard="0"
     inkscape:showpageshadow="2"
     inkscape:deskcolor="#d1d1d1" />
  <metadata
     id="metadata1320">
    <rdf:RDF>
      <cc:Work
         rdf:about="">
        <dc:format>image/svg+xml</dc:format>
        <dc:type
           rdf:resource="http://purl.org/dc/dcmitype/StillImage" />
      </cc:Work>
    </rdf:RDF>
  </metadata>
  <g
     inkscape:label="Ebene 1"
     inkscape:groupmode="layer"
     id="layer1"
     transform="translate(0,-289.85624)">
    <g
       id="g5"
       transform="matrix(0.07414705,0,0,0.07414705,-12.868488,248.62195)"
       style="fill:#ffffff;fill-opacity:1;stroke-width:13.4867" />
    <g
       id="g2"
       transform="matrix(0.49999996,0,0,0.49999996,14.287429,169.53437)"
       style="stroke-width:2">
      <rect
         inkscape:export-ydpi="479.99985"
         inkscape:export-xdpi="479.99985"
         ry="4.8187156"
         y="240.64375"
         x="-28.57486"
         height="52.916664"
         width="52.916664"
         id="rect46"
         style="fill:#f8f9fa;fill-opacity:1;stroke-width:9.99996;stroke-linecap:square;stroke-linejoin:round"
         inkscape:export-filename="../../../../Desktop/plugins.png" />
      <path
         style="fill:#212529;fill-opacity:1;stroke-width:0.492568;stroke-linecap:round;stroke-linejoin:round"
         d="m -1.974,279.66879 c -0.083,-0.008 -0.5637,-0.0818 -1.0678,-0.16371 -0.504,-0.0819 -1.3039,-0.20856 -1.7774,-0.28145 -1.2603,-0.19403 -1.6412,-0.27233 -2.1467,-0.44129 -0.7168,-0.2396 -1.3143,-0.55761 -1.9665,-1.04663 -0.2807,-0.21053 -3.3863,-3.29177 -3.6842,-3.65528 -0.6218,-0.75897 -1.0755,-1.64782 -1.3053,-2.5572 -0.055,-0.21588 -0.1846,-0.92858 -0.2889,-1.58376 -0.1043,-0.65518 -0.2486,-1.56342 -0.3208,-2.0183 -0.3551,-2.23798 -0.2151,-3.29948 0.6631,-5.0275 1.8678,-3.67509 1.6775,-3.316 2.0541,-3.87438 0.4954,-0.73452 1.2488,-1.42783 2.0783,-1.91262 0.1925,-0.11247 1.2093,-0.63799 2.2597,-1.16782 2.0008,-1.00927 2.3672,-1.16351 3.1355,-1.32011 0.4179,-0.0851 1.5335,-0.13281 1.9503,-0.0833 l 0.264,0.0314 0.047,0.4538 c 0.1559,1.50503 0.7119,2.75585 1.6793,3.77809 1.1187,1.18203 2.5803,1.87372 4.1859,1.98091 l 0.4046,0.0271 0.025,0.41599 c 0.1319,2.21655 1.4767,4.22507 3.4922,5.21576 0.7573,0.37224 1.3709,0.54426 2.2579,0.63295 0.3401,0.034 0.4483,0.0581 0.4668,0.10421 0.014,0.0329 0.033,0.34077 0.044,0.68395 0.029,0.92159 -0.1,1.71911 -0.4085,2.53375 -0.1145,0.3021 -1.374,2.82648 -1.9889,3.98631 -0.6708,1.26544 -1.5895,2.209 -2.7725,2.8473 -0.7568,0.40835 -3.8413,1.94468 -4.141,2.06252 -0.3778,0.14859 -0.9942,0.31069 -1.3992,0.36793 -0.251,0.0355 -1.415,0.0431 -1.7396,0.0115 z m -3.7129,-7.10085 c 0.4797,-0.12496 0.8179,-0.39978 1.0367,-0.84262 0.1362,-0.27555 0.1424,-0.30477 0.1422,-0.66829 0,-0.33665 -0.012,-0.40608 -0.1059,-0.60702 -0.1589,-0.3411 -0.2504,-0.46082 -0.4924,-0.64453 -0.6082,-0.46178 -1.5013,-0.41661 -2.025,0.10244 -0.2172,0.21532 -0.3233,0.38672 -0.4183,0.67619 -0.3762,1.14592 0.696,2.28779 1.8628,1.98388 z m 9.7102,-1.65341 c 1.0515,-0.48807 1.2705,-1.85368 0.4178,-2.60572 -0.6253,-0.55146 -1.5441,-0.53259 -2.1428,0.044 -0.3893,0.37496 -0.5554,0.98478 -0.415,1.52379 0.098,0.37757 0.4502,0.82028 0.7942,0.99929 0.3606,0.18768 0.986,0.20563 1.3458,0.0386 z m -7.8586,-6.31656 c 0.6336,-0.29288 1.0152,-1.0105 0.8973,-1.68768 -0.1816,-1.04286 -1.2952,-1.60429 -2.2565,-1.13759 -0.3017,0.14649 -0.6179,0.48278 -0.7351,0.78168 -0.117,0.29869 -0.1415,0.8013 -0.052,1.07713 0.1623,0.50232 0.5478,0.87993 1.0771,1.05543 0.052,0.0173 0.2647,0.027 0.4727,0.0217 0.3174,-0.008 0.4133,-0.0259 0.5968,-0.11068 z"
         id="path121" />
    </g>
  </g>
</svg>
